<svg xmlns="http://www.w3.org/2000/svg" width="1600" height="900" viewBox="0 0 1600 900" font-family="ui-monospace, monospace">
  <rect width="1600" height="900" fill="#0b0b0c"/>
  <line x1="80" y1="0" x2="80" y2="900" stroke="#2e2e33" stroke-width="1"/>
  <line x1="160" y1="0" x2="160" y2="900" stroke="#2e2e33" stroke-width="1"/>
  <line x1="240" y1="0" x2="240" y2="900" stroke="#2e2e33" stroke-width="1"/>
  <line x1="320" y1="0" x2="320" y2="900" stroke="#2e2e33" stroke-width="1"/>
  <line x1="400" y1="0" x2="400" y2="900" stroke="#2e2e33" stroke-width="1"/>
  <line x1="480" y1="0" x2="480" y2="900" stroke="#2e2e33" stroke-width="1"/>
  <line x1="560" y1="0" x2="560" y2="900" stroke="#2e2e33" stroke-width="1"/>
  <line x1="640" y1="0" x2="640" y2="900" stroke="#2e2e33" stroke-width="1"/>
  <line x1="720" y1="0" x2="720" y2="900" stroke="#2e2e33" stroke-width="1"/>
  <line x1="800" y1="0" x2="800" y2="900" stroke="#2e2e33" stroke-width="1"/>
  <line x1="880" y1="0" x2="880" y2="900" stroke="#2e2e33" stroke-width="1"/>
  <line x1="960" y1="0" x2="960" y2="900" stroke="#2e2e33" stroke-width="1"/>
  <line x1="1040" y1="0" x2="1040" y2="900" stroke="#2e2e33" stroke-width="1"/>
  <line x1="1120" y1="0" x2="1120" y2="900" stroke="#2e2e33" stroke-width="1"/>
  <line x1="1200" y1="0" x2="1200" y2="900" stroke="#2e2e33" stroke-width="1"/>
  <line x1="1280" y1="0" x2="1280" y2="900" stroke="#2e2e33" stroke-width="1"/>
  <line x1="1360" y1="0" x2="1360" y2="900" stroke="#2e2e33" stroke-width="1"/>
  <line x1="1440" y1="0" x2="1440" y2="900" stroke="#2e2e33" stroke-width="1"/>
  <line x1="1520" y1="0" x2="1520" y2="900" stroke="#2e2e33" stroke-width="1"/>
  <line x1="0" y1="80" x2="1600" y2="80" stroke="#2e2e33" stroke-width="1"/>
  <line x1="0" y1="160" x2="1600" y2="160" stroke="#2e2e33" stroke-width="1"/>
  <line x1="0" y1="240" x2="1600" y2="240" stroke="#2e2e33" stroke-width="1"/>
  <line x1="0" y1="320" x2="1600" y2="320" stroke="#2e2e33" stroke-width="1"/>
  <line x1="0" y1="400" x2="1600" y2="400" stroke="#2e2e33" stroke-width="1"/>
  <line x1="0" y1="480" x2="1600" y2="480" stroke="#2e2e33" stroke-width="1"/>
  <line x1="0" y1="560" x2="1600" y2="560" stroke="#2e2e33" stroke-width="1"/>
  <line x1="0" y1="640" x2="1600" y2="640" stroke="#2e2e33" stroke-width="1"/>
  <line x1="0" y1="720" x2="1600" y2="720" stroke="#2e2e33" stroke-width="1"/>
  <line x1="0" y1="800" x2="1600" y2="800" stroke="#2e2e33" stroke-width="1"/>
  <line x1="0" y1="880" x2="1600" y2="880" stroke="#2e2e33" stroke-width="1"/>
  <rect x="0" y="0" width="10" height="900" fill="#60a5fa"/>
  <text x="100" y="120" fill="#71717a" font-size="30" letter-spacing="10">PROJECT PREVIEW</text>
  <text x="100" y="130" fill="#71717a" font-size="30" text-anchor="end" transform="translate(1500,0)" letter-spacing="6">FRAME 3 / 3</text>
  <text x="100" y="450" fill="#f4f4f5" font-size="92" font-weight="700" letter-spacing="-2" font-family="ui-sans-serif, system-ui, sans-serif">Personal Portfolio</text>
  <text x="100" y="520" fill="#a1a1aa" font-size="40" font-family="ui-sans-serif, system-ui, sans-serif">Next.js · Tailwind · TypeScript</text>
  <text x="100" y="810" fill="#71717a" font-size="26" letter-spacing="4">REPLACE WITH A REAL SCREENSHOT — /public/projects/</text>
</svg>